<?xml version="1.0" standalone="no"?>
<!DOCTYPE svg PUBLIC "-//W3C//DTD SVG 20010904//EN"
 "http://www.w3.org/TR/2001/REC-SVG-20010904/DTD/svg10.dtd">
<svg version="1.0" xmlns="http://www.w3.org/2000/svg"
 width="195.000000pt" height="195.000000pt" viewBox="0 0 195.000000 195.000000"
 preserveAspectRatio="xMidYMid meet">

<g transform="translate(0.000000,195.000000) scale(0.100000,-0.100000)"
fill="#000000" stroke="none">
<path d="M817 1783 c-259 -270 -260 -271 -260 -302 0 -24 17 -49 83 -118 l84
-88 -170 -6 c-93 -3 -170 -7 -171 -8 -1 0 -11 -11 -23 -23 -19 -21 -20 -34
-20 -279 0 -238 1 -259 19 -280 l19 -24 590 0 590 0 26 24 26 24 0 254 0 254
-24 24 c-31 30 -79 37 -244 33 -72 -2 -132 0 -132 3 0 3 12 16 26 30 65 60
144 161 144 184 0 19 -42 69 -166 198 -91 94 -179 184 -195 200 -51 48 -67 40
-202 -100z m299 -35 c174 -178 244 -254 244 -267 0 -6 -49 -64 -109 -129
l-110 -117 206 -3 c132 -1 211 -6 220 -13 10 -9 13 -66 13 -265 0 -240 -1
-254 -19 -264 -13 -6 -217 -10 -595 -10 -509 0 -576 2 -590 16 -14 13 -16 51
-16 263 0 219 2 250 17 262 12 10 66 15 210 19 l193 5 -100 108 c-58 62 -100
115 -100 127 0 29 358 400 385 400 13 0 68 -49 151 -132z"/>
<path d="M797 1688 c-179 -184 -192 -201 -180 -222 4 -8 61 -68 126 -135 64
-66 117 -123 117 -126 0 -3 -106 -5 -235 -5 l-235 0 2 -242 3 -243 575 0 575
0 0 240 0 240 -232 3 c-128 1 -233 5 -233 8 0 3 54 62 120 131 67 71 120 134
120 145 0 21 -312 348 -345 361 -17 7 -44 -17 -178 -155z m249 -13 c41 -26 57
-72 57 -156 -1 -133 -51 -209 -146 -217 -46 -4 -57 -1 -83 21 -24 21 -27 29
-18 44 6 10 22 18 35 18 19 0 24 -5 24 -27 1 -37 8 -42 50 -34 31 6 40 14 56
49 10 23 19 57 19 76 0 29 -2 32 -16 21 -22 -19 -98 -16 -129 4 -41 27 -60 81
-45 129 13 43 50 83 83 90 34 8 87 -1 113 -18z m-518 -547 c15 -15 16 -84 2
-93 -7 -4 -5 -14 5 -28 19 -27 19 -76 0 -101 -10 -13 -28 -20 -57 -20 l-43 -1
-3 128 -3 127 44 0 c24 0 48 -5 55 -12z m185 -100 c22 -142 22 -138 -8 -138
-16 0 -25 6 -25 15 0 8 -7 15 -15 15 -8 0 -15 -7 -15 -15 0 -10 -10 -15 -28
-15 l-29 0 18 118 c10 64 19 120 19 125 0 4 15 7 33 7 l34 0 16 -112z m119 30
c3 -77 5 -83 26 -86 18 -3 22 -10 22 -43 l0 -39 -50 0 -50 0 0 125 0 125 25 0
c24 0 24 -2 27 -82z m208 42 c0 -33 -3 -40 -20 -40 -18 0 -20 -7 -20 -85 0
-84 0 -85 -25 -85 -25 0 -25 1 -25 85 0 78 -2 85 -20 85 -17 0 -20 7 -20 40
l0 40 65 0 65 0 0 -40z m100 -85 l0 -125 -25 0 -25 0 0 125 0 125 25 0 25 0 0
-125z m100 88 c0 -28 3 -34 10 -23 5 8 10 25 10 38 0 18 6 22 30 22 35 0 34 5
14 -69 -16 -56 -16 -61 4 -120 l21 -62 -32 3 c-26 2 -33 8 -35 28 -6 42 -22
47 -22 7 0 -33 -3 -37 -25 -37 l-25 0 0 125 0 125 25 0 c22 0 25 -4 25 -37z
m244 -70 c21 -142 21 -143 -9 -143 -16 0 -25 6 -25 15 0 8 -7 15 -15 15 -8 0
-15 -7 -15 -15 0 -10 -10 -15 -28 -15 l-29 0 12 78 c7 42 16 98 19 125 7 45 8
47 40 47 l33 0 17 -107z m-1016 -180 c-20 -3 -28 -10 -28 -24 0 -14 7 -19 28
-20 l27 -2 -27 -4 c-22 -3 -28 -10 -28 -28 0 -18 6 -25 28 -28 25 -4 25 -4 -5
-6 l-33 -1 0 53 c0 61 4 68 39 66 l26 -2 -27 -4z m410 0 c-36 -5 -40 -42 -5
-44 l22 -2 -22 -4 c-35 -7 -31 -50 5 -56 25 -4 25 -4 -5 -6 l-33 -1 0 53 c0
61 4 68 39 66 l26 -2 -27 -4z m208 -7 c15 -12 17 -18 8 -33 -7 -12 -8 -27 -2
-42 4 -13 6 -26 4 -29 -3 -2 -8 7 -12 22 -9 36 -41 35 -47 -1 -2 -16 -5 -3 -6
28 -1 72 12 86 55 55z m218 5 c4 -5 -3 -7 -13 -4 -31 8 -61 -14 -61 -45 0 -34
16 -52 47 -52 16 0 23 6 23 19 0 11 -6 22 -12 24 -8 3 -6 6 5 6 12 1 17 -7 17
-29 0 -26 -4 -30 -28 -30 -40 0 -64 21 -64 55 0 44 67 87 86 56z m-639 -44
l30 -42 6 45 c6 45 6 45 7 -14 2 -51 0 -57 -13 -46 -8 7 -25 29 -37 49 l-23
36 -6 -50 -6 -50 -1 58 c-1 31 1 57 6 57 4 0 21 -19 37 -43z m815 18 c7 14 17
25 22 25 5 0 0 -13 -10 -28 -11 -15 -22 -41 -25 -57 l-4 -30 -2 30 c-1 17 -8
39 -16 49 -8 11 -15 25 -15 30 0 6 8 -1 18 -17 l19 -27 13 25z"/>
<path d="M927 1652 c-23 -25 -24 -134 -1 -156 22 -22 70 -20 94 4 15 15 20 33
20 75 0 42 -5 60 -20 75 -25 25 -72 26 -93 2z"/>
<path d="M481 1064 c0 -11 3 -14 6 -6 3 7 2 16 -1 19 -3 4 -6 -2 -5 -13z"/>
<path d="M480 964 c0 -8 5 -12 10 -9 6 4 8 11 5 16 -9 14 -15 11 -15 -7z"/>
<path d="M662 1000 c0 -14 2 -19 5 -12 2 6 2 18 0 25 -3 6 -5 1 -5 -13z"/>
<path d="M1432 1000 c0 -14 2 -19 5 -12 2 6 2 18 0 25 -3 6 -5 1 -5 -13z"/>
<path d="M1040 825 c0 -18 5 -25 19 -25 23 0 34 23 18 39 -19 19 -37 12 -37
-14z"/>
<path d="M255 110 c-3 -5 0 -7 9 -4 11 4 14 -1 12 -23 -3 -19 -9 -28 -21 -26
-12 1 -14 -2 -7 -9 20 -20 40 -1 40 36 0 35 -19 49 -33 26z"/>
<path d="M326 86 c-10 -21 -15 -41 -12 -44 3 -3 6 0 6 6 0 16 27 15 33 0 3 -7
6 -2 6 11 1 17 -3 22 -14 17 -8 -3 -15 -1 -15 3 0 5 5 11 12 13 6 2 9 11 6 19
-4 9 -12 0 -22 -25z"/>
<path d="M394 105 c-3 -8 -4 -20 -1 -27 3 -7 6 -3 6 10 1 26 27 30 34 5 4 -14
5 -12 6 5 1 16 -5 22 -19 22 -11 0 -23 -7 -26 -15z"/>
<path d="M465 84 c-3 -20 -4 -39 -1 -42 3 -3 6 2 6 10 0 9 9 18 20 21 26 7 27
47 1 47 -14 0 -21 -10 -26 -36z m35 11 c0 -8 -4 -15 -10 -15 -5 0 -10 7 -10
15 0 8 5 15 10 15 6 0 10 -7 10 -15z"/>
<path d="M547 105 c-4 -9 -3 -13 3 -10 6 3 10 1 10 -4 0 -6 -6 -11 -14 -11
-14 0 -30 -29 -21 -38 3 -3 5 0 5 6 0 16 27 15 33 0 3 -7 6 1 6 17 1 38 -13
64 -22 40z"/>
<path d="M606 104 c-13 -34 -7 -64 14 -64 11 0 20 3 21 8 0 4 2 22 5 40 3 26
0 32 -15 32 -10 0 -22 -7 -25 -16z m34 -4 c0 -5 -7 -10 -16 -10 -8 0 -12 5 -9
10 3 6 10 10 16 10 5 0 9 -4 9 -10z m-8 -35 c0 -5 -5 -11 -11 -13 -6 -2 -11 4
-11 13 0 9 5 15 11 13 6 -2 11 -8 11 -13z"/>
<path d="M677 91 c-10 -48 -9 -51 13 -51 26 0 38 29 18 44 -8 6 -17 18 -20 26
-2 8 -7 0 -11 -19z m24 -34 c-13 -13 -26 -3 -16 12 3 6 11 8 17 5 6 -4 6 -10
-1 -17z"/>
<path d="M750 101 c-5 -11 -10 -27 -10 -36 0 -20 28 -31 42 -17 8 8 5 9 -11 5
-16 -4 -21 -1 -21 13 0 29 16 48 35 41 9 -4 14 -3 10 3 -10 16 -34 11 -45 -9z"/>
<path d="M829 108 c-1 -7 -1 -19 0 -26 1 -8 -4 -21 -11 -30 -11 -15 -10 -15 8
1 11 9 23 17 27 17 3 0 4 -8 1 -17 -5 -15 -4 -16 5 -3 19 27 13 49 -11 43 -16
-4 -20 -2 -13 5 6 5 19 12 30 15 15 4 13 5 -7 6 -16 0 -29 -4 -29 -11z"/>
<path d="M943 98 c1 -13 -2 -29 -7 -36 -16 -26 3 -23 19 2 10 14 21 23 26 20
5 -3 9 5 9 18 l0 23 -19 -24 -19 -25 -5 22 -5 22 1 -22z"/>
<path d="M1060 111 c0 -5 9 -7 19 -4 18 4 19 1 11 -32 -5 -21 -5 -34 -1 -29 5
5 11 24 14 42 6 29 4 32 -18 32 -14 0 -25 -4 -25 -9z"/>
<path d="M1136 104 c-3 -9 -6 -21 -5 -27 0 -7 4 -2 9 11 10 23 25 29 35 12 9
-15 -15 -52 -31 -46 -8 3 -14 1 -14 -4 0 -6 8 -10 18 -10 21 0 44 42 36 65 -8
20 -40 19 -48 -1z"/>
<path d="M1228 113 c6 -2 18 -2 25 0 6 3 1 5 -13 5 -14 0 -19 -2 -12 -5z"/>
<path d="M1286 104 c-3 -9 -6 -27 -6 -40 0 -19 5 -24 23 -23 16 1 18 2 5 6
-10 2 -18 11 -18 19 0 8 8 14 18 15 14 0 14 2 -3 9 -19 8 -19 8 5 18 23 10 23
11 4 11 -12 1 -25 -6 -28 -15z"/>
<path d="M1365 98 c2 -9 -4 -27 -13 -40 l-16 -23 24 20 23 20 -6 -20 c-7 -20
-7 -20 8 -1 13 17 15 18 15 3 0 -9 4 -17 10 -17 6 0 6 9 1 24 -7 17 -5 27 7
40 9 9 11 16 5 16 -6 0 -13 -7 -17 -15 -7 -18 -33 -20 -39 -2 -2 6 -3 4 -2 -5z"/>
<path d="M1460 111 c0 -5 9 -7 20 -4 11 3 20 7 20 9 0 2 -9 4 -20 4 -11 0 -20
-4 -20 -9z"/>
<path d="M1537 105 c-4 -9 -3 -13 3 -10 6 3 10 1 10 -4 0 -6 -6 -11 -14 -11
-14 0 -30 -29 -21 -38 3 -3 5 0 5 6 0 16 27 15 33 0 3 -7 6 1 6 17 1 38 -13
64 -22 40z"/>
<path d="M1620 94 c-13 -23 -15 -24 -21 -7 -4 14 -7 10 -11 -15 -6 -39 4 -41
22 -6 13 23 15 24 21 7 4 -14 7 -10 11 15 6 39 -4 41 -22 6z"/>
<path d="M1674 105 c-3 -8 -4 -20 -2 -27 3 -7 7 -1 10 15 6 29 1 36 -8 12z"/>
<path d="M1208 69 c-4 -26 -2 -30 16 -27 27 4 32 34 8 47 -17 9 -20 7 -24 -20z
m32 -4 c0 -8 -4 -15 -10 -15 -5 0 -10 7 -10 15 0 8 5 15 10 15 6 0 10 -7 10
-15z"/>
<path d="M1482 80 c0 -14 2 -19 5 -12 2 6 2 18 0 25 -3 6 -5 1 -5 -13z"/>
<path d="M1052 65 c0 -16 2 -22 5 -12 2 9 2 23 0 30 -3 6 -5 -1 -5 -18z"/>
<path d="M1447 73 c-2 -10 -8 -27 -12 -38 -5 -15 -4 -16 3 -6 6 8 19 12 31 8
12 -3 21 -1 21 4 0 5 -9 9 -19 9 -14 0 -18 5 -14 20 7 25 -3 27 -10 3z"/>
<path d="M421 54 c0 -11 3 -14 6 -6 3 7 2 16 -1 19 -3 4 -6 -2 -5 -13z"/>
<path d="M971 54 c0 -11 3 -14 6 -6 3 7 2 16 -1 19 -3 4 -6 -2 -5 -13z"/>
</g>
</svg>
