<svg width="37" height="34" viewBox="0 0 37 34" fill="none" xmlns="http://www.w3.org/2000/svg">
<path d="M16.7346 0.0428696C14.3944 0.242329 12.4565 0.694435 10.3298 1.53881C6.74146 2.96162 3.7115 5.41496 1.95428 8.32042C0.796494 10.2419 0.213493 12.037 0.0574789 14.138L0 14.9624L0.238127 14.8361C0.77186 14.5502 1.2399 14.3707 1.86396 14.1978L2.52907 14.0183L2.59476 13.5994C2.73435 12.7285 3.07923 11.4519 3.35841 10.7937C5.16489 6.56518 9.42654 3.40708 14.7639 2.3433C16.0448 2.09065 16.9481 2.01087 18.5 2.01087C20.0519 2.01087 20.9552 2.09065 22.2361 2.3433C26.1611 3.12784 29.6016 5.08253 31.8269 7.78853C32.4345 8.53317 33.2557 9.89614 33.6416 10.7937C33.9208 11.4519 34.2656 12.7285 34.4052 13.5994L34.4709 14.0183L35.136 14.1978C35.7601 14.3707 36.2281 14.5502 36.7619 14.8361L37 14.9624L36.9425 14.138C36.7126 10.9666 35.2921 7.97469 32.8451 5.52799C32.2046 4.88307 30.8251 3.77275 30.0368 3.26081C27.5735 1.66514 24.6092 0.601355 21.415 0.169193C20.2983 0.0162754 17.7938 -0.050211 16.7346 0.0428696Z" fill="#A81A26"/>
<path d="M7.9157 14.0119C6.50336 14.238 5.30452 15.222 5.03355 16.3921C4.91859 16.8708 4.91859 25.1018 5.03355 25.5805C5.32094 26.8172 6.54442 27.7746 8.10456 27.9807C10.0014 28.2333 11.89 27.143 12.2595 25.5805C12.3744 25.1018 12.3744 16.8708 12.2595 16.3921C11.8735 14.7699 9.91925 13.6928 7.9157 14.0119Z" fill="#A81A26"/>
<path d="M27.6227 14.0117C26.2104 14.2378 25.0115 15.2218 24.7405 16.3919C24.6256 16.8706 24.6256 25.1016 24.7405 25.5803C24.954 26.4912 25.7423 27.3289 26.7523 27.7079C27.4585 27.9805 28.296 28.0869 28.9119 27.9805C29.1582 27.9406 29.3799 27.9074 29.3881 27.9207C29.4045 27.9273 29.2978 28.1268 29.1664 28.3528C28.7066 29.1241 27.672 29.7823 26.6456 29.9551C26.391 29.995 25.3318 30.0283 24.1001 30.0283H21.9898L21.7434 29.6493C21.0291 28.539 19.4607 27.8874 17.9745 28.0869C15.9463 28.3595 14.5421 29.882 14.8706 31.4644C15.1416 32.7742 16.3486 33.7515 17.9745 33.9643C19.4525 34.1637 21.0291 33.5122 21.7434 32.4085L21.9816 32.0362L24.4942 32.0029C27.13 31.9763 27.286 31.9564 28.2714 31.6239C29.6837 31.1386 30.9647 30.1014 31.5559 28.9645C32.0239 28.0669 31.9993 28.3794 32.0239 22.3624C32.0486 18.6791 32.0239 16.6579 31.9665 16.4119C31.597 14.7763 29.6345 13.6926 27.6227 14.0117Z" fill="#A81A26"/>
<path d="M2.00355 16.3121C1.13316 16.6578 0.320242 17.5221 0.11496 18.3133C-0.00820927 18.7853 -0.00820927 23.1867 0.11496 23.6588C0.353087 24.563 1.40413 25.567 2.36485 25.7997C2.52907 25.8395 2.52907 25.8063 2.52907 20.986C2.52907 18.3133 2.51265 16.1325 2.47981 16.1325C2.45517 16.1325 2.24168 16.2123 2.00355 16.3121Z" fill="#A81A26"/>
<path d="M34.4709 20.986C34.4709 25.8063 34.4709 25.8395 34.6351 25.7997C35.5959 25.567 36.6469 24.563 36.885 23.6588C37.0082 23.1867 37.0082 18.7853 36.885 18.3133C36.6469 17.4091 35.5959 16.4051 34.6351 16.1724C34.4709 16.1325 34.4709 16.1658 34.4709 20.986Z" fill="#A81A26"/>
</svg>
