<svg width="37" height="34" viewBox="0 0 37 34" fill="none" xmlns="http://www.w3.org/2000/svg">
<path d="M16.5569 0.0847769C13.9346 0.369408 11.0813 1.40793 8.81302 2.90032C8.14121 3.34649 6.96374 4.25424 6.4942 4.70041C6.34227 4.84517 6.33559 5.08539 6.47924 5.23837L8.63242 7.53134L10.581 9.6002C10.8442 9.87962 11.2766 9.91314 11.5797 9.67761C12.1359 9.23912 12.7644 8.82372 13.2917 8.54678C14.2742 8.01598 15.9573 7.4698 16.9758 7.34671C17.2314 7.31599 17.4237 7.09917 17.4237 6.84177V3.64651C17.4237 0.223247 17.4165 0.000157356 17.3009 0.00784969C17.2287 0.015542 16.8964 0.0540056 16.5569 0.0847769Z" fill="#A81A26"/>
<path d="M19.5907 3.64639V6.87032C19.5907 7.11185 19.7702 7.3158 20.0097 7.34659C21.9168 7.59276 24.0117 8.5005 25.5431 9.75441C25.7787 9.94905 26.1249 9.92715 26.3341 9.7044L28.382 7.52352L30.3153 5.46478C30.5826 5.1801 30.5643 4.73147 30.2747 4.46951C29.3572 3.65408 27.8403 2.62325 26.6339 1.99245C24.5029 0.884696 22.5669 0.315434 20.0097 0.0461893C19.7861 0.0215588 19.5907 0.196616 19.5907 0.421544V3.64639Z" fill="#A81A26"/>
<path d="M4.17532 7.22355C3.00507 8.72363 1.76982 11.0161 1.11246 12.9316C0.585123 14.447 0.216712 16.2394 0.0505662 18.0164C0.023463 18.2968 0.243855 18.5396 0.525544 18.5396H3.42405H6.14179C6.54621 18.5396 6.88824 18.2403 6.94201 17.8395C7.19484 15.9548 7.96056 13.9547 9.02245 12.4238C9.29628 12.029 9.25693 11.4965 8.92803 11.1463L7.07926 9.1775L5.19941 7.1756C4.9158 6.87358 4.42946 6.89635 4.17532 7.22355Z" fill="#A81A26"/>
<path d="M29.928 9.18519L28.0864 11.1463C27.7575 11.4965 27.7182 12.029 27.992 12.4238C29.0467 13.947 29.8268 15.9702 30.0797 17.8626C30.1292 18.2496 30.4586 18.5396 30.8488 18.5396H33.5832C36.2776 18.5396 37 18.5165 37 18.4395C37 18.0549 36.7472 16.1933 36.5955 15.4702C35.9959 12.57 34.5656 9.42367 32.8464 7.23124C32.5791 6.89276 32.3624 6.61582 32.3551 6.61582C32.3479 6.61582 31.2571 7.76973 29.928 9.18519Z" fill="#A81A26"/>
<path d="M17.8932 16.1547C15.6177 16.6855 14.4763 19.1471 15.4732 21.3472C15.9139 22.3242 17.3369 23.5243 21.9168 26.7937C23.1231 27.6553 24.7991 28.8323 25.6515 29.4092C27.0745 30.3785 27.219 30.4631 27.5369 30.4631C28.3098 30.4631 28.8155 29.6554 28.5193 28.9015C28.317 28.3861 24.12 21.6396 22.7692 19.6549C21.1583 17.2932 20.5443 16.6393 19.6485 16.3162C19.1284 16.1239 18.3194 16.0547 17.8932 16.1547Z" fill="#A81A26"/>
<path d="M0.0505662 21.3628C0.476767 26.0169 2.16712 30.0094 5.06384 33.2481C5.68508 33.9481 5.96681 34.0866 6.45802 33.9327C6.71807 33.8481 7.05759 33.525 8.56013 31.9403C10.9367 29.4171 10.944 29.4094 9.87485 28.1093C8.19172 26.063 7.17317 23.7245 6.90589 21.2859C6.87707 21.036 6.66549 20.8474 6.41393 20.8474H3.43127H0.517887C0.240433 20.8474 0.0234758 21.0867 0.0505662 21.3628Z" fill="#A81A26"/>
<path d="M30.1085 21.2858C29.9857 22.4012 29.6462 23.709 29.22 24.709C29.0613 25.081 29.091 25.5065 29.2999 25.8528L29.6679 26.463C30.058 27.1015 30.4553 27.8323 30.5492 28.0938C30.8887 28.9785 30.8381 30.0709 30.4192 30.9401C30.2241 31.3478 29.5668 32.0863 29.2345 32.2787C29.0972 32.3556 28.9816 32.4402 28.9816 32.4633C28.9816 32.4941 29.2634 32.8095 29.6173 33.171C30.6864 34.2865 31.0404 34.2788 32.0517 33.1326C34.3344 30.5555 35.967 27.2168 36.6388 23.7167C36.7688 23.0782 37 21.2627 37 20.9473C37 20.8703 36.2776 20.8473 33.5759 20.8473H30.6005C30.349 20.8473 30.1374 21.0359 30.1085 21.2858Z" fill="#A81A26"/>
</svg>
