<svg width="138" height="125" viewBox="0 0 138 125" fill="none" xmlns="http://www.w3.org/2000/svg">
<ellipse cx="74.3636" cy="62.3368" rx="62.3636" ry="62.3368" fill="url(#paint0_radial_113_205)" fill-opacity="0.2"/>
<path d="M61.4556 36.8064L49 41.599V53.8222C49 64.9267 49.0261 66.1697 49.2348 67.62C50.1999 74.1252 52.665 79.2217 57.1385 83.9176C59.7992 86.7213 62.5512 88.8207 66.2162 90.8372C68.9681 92.3564 73.0374 94 74.0156 94C74.5112 94 77.511 92.9227 79.1935 92.1354C83.5236 90.119 87.3712 87.4671 90.4101 84.3734C95.4445 79.2631 98.2878 73.0617 98.8877 65.8245C98.979 64.6919 99.0182 60.2584 98.9921 52.8416L98.9529 41.5852L86.4973 36.7926C79.65 34.1546 74.0156 32 73.9765 32C73.9373 32 68.303 34.1546 61.4556 36.8064ZM86.5625 54.2228L87.9972 55.742L78.8935 65.3825L69.8029 75.0091L64.8858 69.8022L59.9688 64.5952L61.4295 63.0345L62.8903 61.4738L66.3466 65.1339L69.8029 68.7939L77.4067 60.7418C81.5803 56.3221 85.0235 52.7035 85.0626 52.7035C85.1018 52.7035 85.78 53.3941 86.5625 54.2228Z" fill="#A81A26"/>
<ellipse cx="133.712" cy="9.71037" rx="3.71212" ry="3.71052" transform="rotate(-180 133.712 9.71037)" fill="#A81A26" fill-opacity="0.8"/>
<ellipse cx="5.93939" cy="25.9372" rx="5.93939" ry="5.93684" transform="rotate(-180 5.93939 25.9372)" fill="#A81A26"/>
<ellipse cx="103.455" cy="117.453" rx="4.45455" ry="4.45263" transform="rotate(-180 103.455 117.453)" fill="#A81A26"/>
<defs>
<radialGradient id="paint0_radial_113_205" cx="0" cy="0" r="1" gradientUnits="userSpaceOnUse" gradientTransform="translate(74.3636 62.3368) rotate(90) scale(62.3368 62.3636)">
<stop stop-color="#A81A26"/>
<stop offset="1" stop-color="#A81A26" stop-opacity="0.5"/>
</radialGradient>
</defs>
</svg>
